<svg width="26" height="25" viewBox="0 0 26 25" fill="none" xmlns="http://www.w3.org/2000/svg">
<g clip-path="url(#clip0_3419_3341)">
<path d="M12.9996 2.16773C16.216 2.16773 16.5969 2.18184 17.8618 2.23827C19.0373 2.28999 19.6721 2.48748 20.0953 2.65206C20.6549 2.86837 21.0593 3.13169 21.4778 3.55019C21.901 3.97339 22.1596 4.37308 22.3759 4.93265C22.5405 5.35585 22.738 5.99535 22.7897 7.16621C22.8461 8.43582 22.8602 8.8167 22.8602 12.0283C22.8602 15.2447 22.8461 15.6255 22.7897 16.8904C22.738 18.066 22.5405 18.7008 22.3759 19.124C22.1596 19.6836 21.8963 20.088 21.4778 20.5065C21.0546 20.9297 20.6549 21.1883 20.0953 21.4046C19.6721 21.5692 19.0326 21.7667 17.8618 21.8184C16.5922 21.8748 16.2113 21.8889 12.9996 21.8889C9.78331 21.8889 9.40243 21.8748 8.13753 21.8184C6.96197 21.7667 6.32717 21.5692 5.90397 21.4046C5.3444 21.1883 4.94001 20.925 4.52151 20.5065C4.09831 20.0833 3.83968 19.6836 3.62338 19.124C3.4588 18.7008 3.26131 18.0613 3.20958 16.8904C3.15316 15.6208 3.13905 15.24 3.13905 12.0283C3.13905 8.812 3.15316 8.43112 3.20958 7.16621C3.26131 5.99065 3.4588 5.35585 3.62338 4.93265C3.83968 4.37308 4.10301 3.96869 4.52151 3.55019C4.94471 3.12699 5.3444 2.86837 5.90397 2.65206C6.32717 2.48748 6.96667 2.28999 8.13753 2.23827C9.40243 2.18184 9.78331 2.16773 12.9996 2.16773ZM12.9996 0C9.73159 0 9.32249 0.0141067 8.03878 0.0705336C6.75977 0.12696 5.88046 0.333859 5.11869 0.6301C4.32401 0.940448 3.65159 1.34954 2.98388 2.02196C2.31146 2.68968 1.90236 3.3621 1.59201 4.15208C1.29577 4.91854 1.08887 5.79316 1.03245 7.07217C0.976021 8.36058 0.961914 8.76968 0.961914 12.0377C0.961914 15.3058 0.976021 15.7149 1.03245 16.9986C1.08887 18.2776 1.29577 19.1569 1.59201 19.9187C1.90236 20.7134 2.31146 21.3858 2.98388 22.0535C3.65159 22.7212 4.32401 23.135 5.11399 23.4407C5.88046 23.7369 6.75507 23.9438 8.03408 24.0002C9.31779 24.0567 9.72689 24.0708 12.9949 24.0708C16.263 24.0708 16.6721 24.0567 17.9558 24.0002C19.2348 23.9438 20.1141 23.7369 20.8759 23.4407C21.6659 23.135 22.3383 22.7212 23.006 22.0535C23.6737 21.3858 24.0875 20.7134 24.3932 19.9234C24.6894 19.1569 24.8963 18.2823 24.9527 17.0033C25.0092 15.7196 25.0233 15.3105 25.0233 12.0424C25.0233 8.77438 25.0092 8.36528 24.9527 7.08157C24.8963 5.80256 24.6894 4.92324 24.3932 4.16148C24.0969 3.3621 23.6878 2.68968 23.0154 2.02196C22.3477 1.35424 21.6753 0.940448 20.8853 0.634802C20.1188 0.338561 19.2442 0.131663 17.9652 0.0752358C16.6768 0.0141067 16.2677 0 12.9996 0Z" fill="#272525"/>
<path d="M12.9999 5.85425C9.58603 5.85425 6.81641 8.62387 6.81641 12.0377C6.81641 15.4515 9.58603 18.2211 12.9999 18.2211C16.4137 18.2211 19.1833 15.4515 19.1833 12.0377C19.1833 8.62387 16.4137 5.85425 12.9999 5.85425ZM12.9999 16.0487C10.7851 16.0487 8.98884 14.2524 8.98884 12.0377C8.98884 9.82294 10.7851 8.02668 12.9999 8.02668C15.2146 8.02668 17.0109 9.82294 17.0109 12.0377C17.0109 14.2524 15.2146 16.0487 12.9999 16.0487Z" fill="#272525"/>
<path d="M20.8715 5.60985C20.8715 6.40923 20.2226 7.05344 19.428 7.05344C18.6286 7.05344 17.9844 6.40453 17.9844 5.60985C17.9844 4.81047 18.6333 4.16626 19.428 4.16626C20.2226 4.16626 20.8715 4.81517 20.8715 5.60985Z" fill="#272525"/>
</g>
<defs>
<clipPath id="clip0_3419_3341">
<rect width="24.0755" height="24.0755" fill="white" transform="translate(0.961914)"/>
</clipPath>
</defs>
</svg>
