<svg width="24" height="24" viewBox="0 0 24 24" fill="none" xmlns="http://www.w3.org/2000/svg">
<path fill-rule="evenodd" clip-rule="evenodd" d="M3 8H21C21.5523 8 22 7.55228 22 7C22 6.44771 21.5523 6 21 6H3C2.44772 6 2 6.44771 2 7C2 7.55228 2.44772 8 3 8ZM21.0001 15.9998H3.00006C2.44777 15.9998 2.00006 16.4475 2.00006 16.9998C2.00006 17.552 2.44777 17.9998 3.00006 17.9998H21.0001C21.5523 17.9998 22.0001 17.552 22.0001 16.9998C22.0001 16.4475 21.5523 15.9998 21.0001 15.9998ZM21.0001 11.0002H3.00006C2.44777 11.0002 2.00006 11.448 2.00006 12.0002C2.00006 12.5525 2.44777 13.0002 3.00006 13.0002H21.0001C21.5523 13.0002 22.0001 12.5525 22.0001 12.0002C22.0001 11.448 21.5523 11.0002 21.0001 11.0002Z" fill="#272525"/>
</svg>
